
<svg xmlns="http://www.w3.org/2000/svg" version="1.1" xmlns:xlink="http://www.w3.org/1999/xlink" preserveAspectRatio="none" x="0px" y="0px" width="3840px" height="2160px" viewBox="0 0 3840 2160">
<defs>
<linearGradient id="Gradient_1" gradientUnits="userSpaceOnUse" x1="1259.8625" y1="1094.35" x2="1317.3374999999999" y2="672.65" spreadMethod="pad">
<stop  offset="0%" stop-color="#1B41A1"/>

<stop  offset="100%" stop-color="#1B24A2"/>

<stop  offset="100%" stop-color="#1B41A1"/>

<stop  offset="100%" stop-color="#1B41A1"/>
</linearGradient>

<linearGradient id="Gradient_2" gradientUnits="userSpaceOnUse" x1="1122.275" y1="684.75" x2="1940.125" y2="684.75" spreadMethod="pad">
<stop  offset="0%" stop-color="#27A5C8"/>

<stop  offset="100%" stop-color="#146DA2"/>
</linearGradient>

<linearGradient id="Gradient_3" gradientUnits="userSpaceOnUse" x1="2024.5249999999999" y1="1011.6" x2="2805.675" y2="1011.6" spreadMethod="pad">
<stop  offset="0%" stop-color="#1776A8"/>

<stop  offset="100%" stop-color="#26A4C7"/>

<stop  offset="100%" stop-color="#1B41A1"/>

<stop  offset="100%" stop-color="#1B41A1"/>
</linearGradient>

<linearGradient id="Gradient_4" gradientUnits="userSpaceOnUse" x1="2708.4874999999997" y1="567.9625" x2="2525.7125" y2="1069.3375" spreadMethod="pad">
<stop  offset="0%" stop-color="#1B41A1"/>

<stop  offset="100%" stop-color="#1B24A2"/>

<stop  offset="100%" stop-color="#1B41A1"/>

<stop  offset="100%" stop-color="#1B41A1"/>
</linearGradient>

<linearGradient id="Gradient_5" gradientUnits="userSpaceOnUse" x1="1217.975" y1="2498.3875" x2="2610.125" y2="1034.6125" spreadMethod="pad">
<stop  offset="0%" stop-color="#2140A0"/>

<stop  offset="100%" stop-color="#7E319A"/>
</linearGradient>

<linearGradient id="Gradient_6" gradientUnits="userSpaceOnUse" x1="1032.9875" y1="858.3" x2="2863.0125" y2="858.3" spreadMethod="pad">
<stop  offset="0%" stop-color="#1B41A1"/>

<stop  offset="100%" stop-color="#86309A"/>

<stop  offset="100%" stop-color="#1B41A1"/>

<stop  offset="100%" stop-color="#1B41A1"/>
</linearGradient>

<g id="Layer3_0_FILL">
<path fill="url(#Gradient_1)" stroke="none" d="
M 1404.1 646.65
Q 1410.8 643.15 1417.55 640.4 1402.7 640.75 1387.9 642 1331.75 646.65 1281.6 671.95 1231.35 697.4 1192.8 738.4 1155.05 778.5 1138.2 831.1 1121.75 882.55 1129.95 936 1130.4662109375 938.781640625 1131 941.55 1141.2 996.85 1166.65 1047.15 1191 1095.3 1226.4 1136 1277.85 1131.65 1327.8 1118.95 1377.15 1106.55 1423.55 1086.1 1384.1 1057.15 1355.3 1017.45 1331.6 984.7 1316.15 947.4 1300.7 910 1297.5 869.6 1294.4 830.95 1302.5 793.05 1312.75 745 1339.9 704.1 1364.65 666.85 1404.1 646.65 Z"/>

<path fill="url(#Gradient_2)" stroke="none" d="
M 1428.8 442.2
Q 1377.95 454.85 1332.2 480.65 1286.7 506.4 1249.55 543.4 1212.3 580.4 1184.7 624.95 1155.25 672.4 1139.85 725.85 1125.4 775.9 1122.85 827.9 1120.15 882.35 1129.95 936 1121.75 882.55 1138.2 831.1 1155.05 778.5 1192.8 738.4 1231.35 697.4 1281.6 671.95 1331.75 646.65 1387.9 642 1402.7 640.75 1417.55 640.4 1420.85 639.25 1424.15 638.1 1461 626.5 1499.45 628.35 1542.25 629.95 1583.5 641.35 1627.5 653.55 1667.6 675.1 1706.25 696 1740.6 723.55 1771.05 747.9 1798.2 775.85
L 1940.25 596.15
Q 1930.25 587.8 1920.15 579.6 1880.35 546.9 1836.9 519.25 1791.35 490.4 1741.7 469.15 1695.7 449.4 1646.55 438.65 1593.65 427.25 1539.45 427.95 1483.25 428.7 1428.8 442.2 Z"/>

<path fill="#1D89B5" stroke="none" d="
M 1650.3 320.95
Q 1695.35 275.05 1695.35 210.2 1695.35 145.35 1650.3 99.45 1605.3 53.55 1541.65 53.55 1478 53.55 1432.95 99.45 1387.9 145.35 1387.9 210.2 1387.9 275.05 1432.95 320.95 1478 366.85 1541.65 366.85 1605.3 366.85 1650.3 320.95 Z"/>

<path fill="#7E319A" stroke="none" d="
M 2413.95 53.55
Q 2350.3 53.55 2305.25 99.45 2260.25 145.35 2260.25 210.2 2260.25 275.05 2305.25 320.95 2350.3 366.85 2413.95 366.85 2477.6 366.85 2522.65 320.95 2567.65 275.05 2567.65 210.2 2567.65 145.35 2522.65 99.45 2477.6 53.55 2413.95 53.55 Z"/>

<path fill="url(#Gradient_3)" stroke="none" d="
M 2784.95 985.1
Q 2801.5 931.95 2805.1 876.6 2808.5 823.75 2798.45 772.05 2803.75 827.2 2780.9 877.75 2758.3 927.6 2718.25 965.1 2678.85 1001.9 2629.6 1023.9 2582.15 1045.15 2530.2 1048.7 2501.4 1050.75 2472.65 1048.1 2466.45 1048.75 2460.25 1049.4 2417.1 1051.2 2375.65 1038.9 2339.75 1028.35 2305.85 1012.5 2266.7 994.15 2231.45 968.65 2195.65 942.7 2165.05 910.8
L 2025.65 1071.7
Q 2052.6 1098.3 2081.9 1122.55 2123.25 1156.75 2169.75 1183.95 2212.75 1209.05 2259.6 1225.65 2310.05 1243.4 2363.2 1248.9 2416.95 1254.25 2470.45 1248.4 2523.9 1242.65 2573.8 1222.6 2625.8 1201.55 2668.05 1164.35 2710.3 1127.3 2740.65 1080.1 2769.2 1035.75 2784.95 985.1 Z"/>

<path fill="url(#Gradient_4)" stroke="none" d="
M 2798.45 772.05
Q 2791.8 737.55 2778 705.2 2742.25 621.1 2673.65 560.3 2592.3 577 2517.75 613.65 2557.05 648.8 2584.25 693.85 2611.9 739.75 2619.95 792.7 2628.05 846.15 2615.8 898.7 2602.85 954.25 2565.65 997.3 2528.6 1040.15 2472.65 1048.1 2501.4 1050.75 2530.2 1048.7 2582.15 1045.15 2629.6 1023.9 2678.85 1001.9 2718.25 965.1 2758.3 927.6 2780.9 877.75 2803.75 827.2 2798.45 772.05 Z"/>
</g>

<g id="Mask_2_MASK_0_FILL">
<path fill="#FFFFFF" stroke="none" d="
M 1739.2 1603.65
L 1739.2 1646.5
Q 1720.05 1626.15 1695.15 1613.05 1644 1586.1 1587.55 1598.9 1534.6 1610.95 1500.6 1653.8 1465.25 1698.35 1458.15 1754.85 1451.3 1809.65 1474.8 1859.35 1494 1899.85 1531.2 1924.65 1578.45 1956.15 1635.35 1947.8 1691.75 1939.7 1730.3 1897.8
L 1738.35 1888.6
Q 1737.8 1918.55 1735.75 1948.4 1734.95 1960.1 1730.3 1970.9 1712.6 2012.5 1668.15 2023.3 1583.4 2044.3 1510.9 1994.35
L 1483.8 2059.85
Q 1500.4 2068.85 1517.75 2076.4 1581.65 2104.15 1650.9 2098.5 1699.05 2095 1740.25 2070 1749.25 2064.55 1756.8 2057.45 1808.5 2008.7 1812.5 1935.9
L 1814.55 1603.65 1739.2 1603.65
M 1733.9 1716.3
Q 1745.05 1740.05 1744.95 1766.25 1746.4 1824.3 1702.1 1861.2 1670.45 1887.6 1629.05 1886.45 1578.75 1885.1 1553.15 1840.8 1524.15 1790.65 1538.5 1734.35 1553.1 1677.2 1608.5 1658.55 1629.05 1651.65 1650.5 1654.75 1708.95 1663.2 1733.9 1716.3
M 2151.25 1680.6
Q 2174.4 1706.2 2174.2 1740.9 2173.55 1848.2 2174.5 1952.25
L 2247 1952.25
Q 2246.6 1837 2247.9 1721.75 2248.45 1670.65 2212.85 1633.9 2172.15 1591.95 2113.65 1592.5 2056.8 1593.05 2015.45 1632.45
L 1997.4 1651.95 1997.3 1604 1923.75 1604 1923.75 1952.25 1996.4 1952.25
Q 1996.5 1848.85 1997.7 1745.5 1997.95 1722.55 2009.4 1702.55 2010.65 1700.35 2012 1698.2 2013.4 1696 2014.9 1693.9 2016.4 1691.75 2018.1 1689.75 2048.25 1653.9 2095.25 1655 2128.8 1655.8 2151.25 1680.6
M 2356.9 1602.25
L 2356.9 1952.25 2432.8 1952.25 2432.8 1602.25 2356.9 1602.25
M 1101.55 1626.45
Q 1058.95 1659.55 1040.15 1710.2 1020.3 1763.65 1031.7 1819.45 1042.8 1873.95 1082.7 1913.15 1123.1 1952.75 1178.7 1961.65 1233.95 1970.5 1285.5 1949.4 1337.25 1928.35 1367.3 1880.95 1397.1 1833.95 1395.4 1778.25 1394.95 1736.4 1376.9 1698.85 1352.45 1647.85 1304.6 1618.05 1257.05 1588.35 1200.85 1590.7 1145.25 1592.55 1101.55 1626.45
M 1211.4 1657.55
Q 1255.3 1657.55 1286.3 1692.65 1317.35 1727.8 1317.35 1777.45 1317.35 1827.1 1286.3 1862.2 1255.3 1897.35 1211.4 1897.35 1167.5 1897.35 1136.45 1862.2 1105.45 1827.1 1105.45 1777.45 1105.45 1727.8 1136.45 1692.65 1167.5 1657.55 1211.4 1657.55
M 750.55 1466
Q 697.95 1484.45 662.65 1527.8 631.65 1565.85 615.3 1611.85 599.85 1655.45 598.45 1701.75 596.5 1767.7 622.8 1828.25 634.85 1856 653.85 1879.7 689.45 1923.4 742.3 1943.6 794 1963.4 849.45 1962.85 904.75 1962.3 956.05 1941.25 980.25 1931.35 1002.65 1917.9
L 962.25 1852.2
Q 900.05 1891.65 827.15 1884.25 789.8 1880.55 757.45 1861.65 721.35 1840.45 703.55 1802.4 678.8 1749.6 683.6 1690.95 687.4 1644.25 710.25 1603.25 735.65 1557.65 783.95 1539.45 818 1526.6 854.5 1527.65 912.8 1530.8 961.6 1562.75
L 1001.35 1496.8
Q 940.5 1458.4 868.9 1451.9 807.95 1445.95 750.55 1466
M 2390.7 1441.25
Q 2369.55 1441.25 2354.65 1456.1 2339.8 1471.05 2339.8 1492.15 2339.8 1513.25 2354.65 1528.1 2369.55 1543.05 2390.7 1543.05 2352.05 1539.65 2343.2 1502.05 2338 1480.1 2351.25 1462.2 2366 1442.35 2390.7 1441.25
M 2392 1441.25
L 2390.7 1441.25
Q 2366 1442.35 2351.25 1462.2 2338 1480.1 2343.2 1502.05 2352.05 1539.65 2390.7 1543.05
L 2392 1543.05
Q 2415.25 1542.2 2429.9 1524.1 2445.8 1504.4 2438.9 1479.95 2428.8 1444.3 2392 1441.25
M 2631.5 2003.2
Q 2631.55 2000.7 2631.75 1998.25 2631.95 1995.7 2632.1 1993.15
L 2632.1 1602.25 2556.2 1602.25 2556.2 1989.6
Q 2556.15 1995.45 2555.1 2001.3 2554.1 2006.9 2550.9 2011.35 2532.75 2036.4 2500.15 2031.15 2498.15 2031 2496.2 2030.9 2494.2 2030.6 2492.2 2030.4
L 2492.2 2098.5
Q 2535.9 2106.75 2577.1 2092.95 2591.35 2088.2 2601.7 2077.3 2630.7 2046.7 2631.5 2003.2
M 2753.2 1602.25
L 2753.2 1952.25 2829.1 1952.25 2829.1 1602.25 2753.2 1602.25
M 3260.2 1952.25
Q 3259.8 1837 3261.1 1721.75 3261.65 1670.65 3226 1633.95 3185.25 1591.95 3126.8 1592.5 3070 1593.05 3028.6 1632.45
L 3010.55 1651.95 3010.45 1604 2936.95 1604 2936.95 1952.25 3009.55 1952.25
Q 3009.65 1848.85 3010.85 1745.5 3011.1 1722.55 3022.5 1702.55 3023.8 1700.35 3025.15 1698.2 3026.55 1696 3028.05 1693.85 3029.55 1691.75 3031.1 1689.6 3037.5 1680.6 3046.3 1674.2 3087.9 1644.3 3135.55 1661.05 3165.8 1671.6 3179.15 1701.35 3186.4 1717.55 3186.6 1735.1 3187.75 1843.5 3187.65 1952.25
L 3260.2 1952.25
M 2747.55 1462.25
Q 2734.25 1480.1 2739.45 1502.1 2748.4 1539.65 2787 1543.05
L 2788.3 1543.05
Q 2808.7 1542.65 2823 1528.15 2839.9 1511.05 2836.4 1487.2 2830.3 1445.5 2788.3 1441.25
L 2787 1441.25
Q 2762.3 1442.35 2747.55 1462.25
M 2625.95 1528.15
Q 2642.85 1511.05 2639.35 1487.2 2633.25 1445.5 2591.25 1441.25
L 2589.95 1441.25
Q 2565.1 1442.35 2550.5 1462.2 2537.35 1480.2 2542.5 1502.1 2551.3 1539.65 2589.95 1543.05
L 2591.25 1543.05
Q 2611.65 1542.65 2625.95 1528.15 Z"/>
</g>

<g id="Layer2_0_FILL">
<path fill="url(#Gradient_5)" stroke="none" d="
M 1735.3 202.6
L 343.15 1666.4 2092.8 3330.45 3484.95 1866.65 1735.3 202.6 Z"/>
</g>

<g id="Layer0_0_FILL">
<path fill="url(#Gradient_6)" stroke="none" d="
M 2863.1 517
Q 2814.8 494.05 2764.15 476.35 2716.1 459.55 2666.1 448.5 2618.05 437.9 2569.15 433.65 2514.35 428.75 2459.55 432.45 2408 435.9 2357.1 444.6 2303.3 453.75 2252.25 473.1 2199.8 493 2151.6 521.6 2108.3 547.4 2068.75 578.75 2026.7 612.15 1989 650.25 1955 684.65 1923.3 721.4 1893.65 755.7 1864.3 790.35 1830.4 830.35 1796.95 870.85 1763.35 911.55 1726.2 948.85 1687.85 987.25 1645.25 1021 1601.75 1055.45 1554.05 1083.7 1507.45 1111.45 1457.75 1132.95 1407.45 1154.75 1354.25 1168.45 1302.4 1181.7 1249.25 1188.3 1197.25 1194.8 1144.8 1195.8 1088.85 1196.85 1033.05 1192.6 1045.6 1198.75 1058.65 1204.75 1102.5 1224.6 1148.35 1239.2 1186.35 1251.35 1225.15 1260.25 1260.25 1268.3 1296.05 1273.8 1333.6 1279.6 1371.6 1283.3 1414.5 1286.95 1457.55 1285.65 1490.35 1284.55 1522.75 1280.4 1555.3 1276.15 1587.25 1269.05 1632.5 1258.75 1676.15 1242.85 1708 1231.2 1738.7 1216.8 1767.35 1203.3 1793.9 1185.9 1810.75 1174.9 1827.05 1162.95 1844.45 1150.1 1861.3 1136.5 1876.3 1124.5 1890.65 1111.9 1928.45 1078.7 1963.95 1042.85 2007.5 998.85 2048.1 952.2 2075.55 920.65 2101.3 887.55 2156.55 816.6 2221.75 754.95 2288.6 691.7 2366.1 641.95 2447.3 589.8 2537.75 556.3 2593 535.8 2650.9 525.5 2696.5 517.35 2742.75 515.05 2803.1 512.1 2863.1 517 Z"/>
</g>

<path id="Layer2_0_1_STROKES" stroke="#000000" stroke-width="2" stroke-linejoin="round" stroke-linecap="round" fill="none" d="
M 343.15 1666.4
L 1735.3 202.6 3484.95 1866.65 2092.8 3330.45 343.15 1666.4 Z"/>
</defs>

<g transform="matrix( 1, 0, 0, 1, 0,0) ">
<use xlink:href="#Layer3_0_FILL"/>
</g>

<mask id="Mask_Mask_1">
<g transform="matrix( 1, 0, 0, 1, 0,0) ">
<use xlink:href="#Mask_2_MASK_0_FILL"/>
</g>
</mask>

<g mask="url(#Mask_Mask_1)">
<g transform="matrix( 1, 0, 0, 1, 0,0) ">
<use xlink:href="#Layer2_0_FILL"/>

<use xlink:href="#Layer2_0_1_STROKES"/>
</g>
</g>

<g transform="matrix( 1, 0, 0, 1, 0,0) ">
<use xlink:href="#Layer0_0_FILL"/>
</g>
</svg>
