
<svg xmlns="http://www.w3.org/2000/svg" version="1.1" xmlns:xlink="http://www.w3.org/1999/xlink" preserveAspectRatio="none" x="0px" y="0px" width="3840px" height="2160px" viewBox="0 0 3840 2160">
<defs>
<linearGradient id="Gradient_1" gradientUnits="userSpaceOnUse" x1="719.6" y1="1813.2" x2="818.1" y2="1090.3999999999999" spreadMethod="pad">
<stop  offset="0%" stop-color="#1B41A1"/>

<stop  offset="100%" stop-color="#1B24A2"/>

<stop  offset="100%" stop-color="#1B41A1"/>

<stop  offset="100%" stop-color="#1B41A1"/>
</linearGradient>

<linearGradient id="Gradient_2" gradientUnits="userSpaceOnUse" x1="483.7875" y1="1111.15" x2="1885.6125000000002" y2="1111.15" spreadMethod="pad">
<stop  offset="0%" stop-color="#27A5C8"/>

<stop  offset="100%" stop-color="#146DA2"/>
</linearGradient>

<linearGradient id="Gradient_3" gradientUnits="userSpaceOnUse" x1="2030.2875" y1="1671.35" x2="3369.2125" y2="1671.35" spreadMethod="pad">
<stop  offset="0%" stop-color="#1776A8"/>

<stop  offset="100%" stop-color="#26A4C7"/>

<stop  offset="100%" stop-color="#1B41A1"/>

<stop  offset="100%" stop-color="#1B41A1"/>
</linearGradient>

<linearGradient id="Gradient_4" gradientUnits="userSpaceOnUse" x1="3202.6375" y1="910.9625000000001" x2="2889.3625" y2="1770.3375" spreadMethod="pad">
<stop  offset="0%" stop-color="#1B41A1"/>

<stop  offset="100%" stop-color="#1B24A2"/>

<stop  offset="100%" stop-color="#1B41A1"/>

<stop  offset="100%" stop-color="#1B41A1"/>
</linearGradient>

<linearGradient id="Gradient_5" gradientUnits="userSpaceOnUse" x1="330.71249999999986" y1="1408.6" x2="3467.4875" y2="1408.6" spreadMethod="pad">
<stop  offset="0%" stop-color="#1B41A1"/>

<stop  offset="100%" stop-color="#86309A"/>

<stop  offset="100%" stop-color="#1B41A1"/>

<stop  offset="100%" stop-color="#1B41A1"/>
</linearGradient>

<g id="Layer3_0_FILL">
<path fill="url(#Gradient_1)" stroke="none" d="
M 604.7 1203.1
Q 540 1271.85 511.1 1362 482.9 1450.2 497.05 1541.8 497.8 1546.6 498.75 1551.35 516.25 1646.1 559.85 1732.35 601.6 1814.85 662.3 1884.65 750.45 1877.15 836.1 1855.4 920.7 1834.15 1000.2 1799.1 932.6 1749.45 883.2 1681.45 842.6 1625.3 816.1 1561.35 789.65 1497.25 784.15 1428 778.85 1361.75 792.7 1296.8 810.3 1214.45 856.85 1144.3 899.25 1080.45 966.85 1045.85 978.35 1039.85 989.9 1035.15 964.45 1035.75 939.1 1037.9 842.85 1045.85 756.9 1089.2 670.75 1132.85 604.7 1203.1 Z"/>

<path fill="url(#Gradient_2)" stroke="none" d="
M 1545.55 741.6
Q 1466.7 707.75 1382.45 689.3 1291.75 669.8 1198.85 671 1102.55 672.25 1009.2 695.4 922.05 717.1 843.65 761.3 765.65 805.45 701.95 868.85 638.1 932.3 590.8 1008.65 540.3 1090 513.95 1181.6 489.15 1267.4 484.8 1356.5 480.15 1449.85 497.05 1541.8 482.9 1450.2 511.1 1362 540 1271.85 604.7 1203.1 670.75 1132.85 756.9 1089.2 842.85 1045.85 939.1 1037.9 964.45 1035.75 989.9 1035.15 995.6 1033.15 1001.25 1031.2 1064.4 1011.3 1130.3 1014.5 1203.65 1017.25 1274.35 1036.75 1349.8 1057.7 1418.55 1094.6 1484.75 1130.45 1543.65 1177.65 1595.85 1219.4 1642.4 1267.3
L 1885.85 959.3
Q 1868.75 945 1851.4 930.9 1783.2 874.85 1708.7 827.5 1630.65 778.05 1545.55 741.6 Z"/>

<path fill="#1D89B5" stroke="none" d="
M 1466.1 297.75
Q 1466.1 186.6 1388.85 107.9 1311.75 29.25 1202.65 29.25 1093.55 29.25 1016.3 107.9 939.1 186.6 939.1 297.75 939.1 408.9 1016.3 487.6 1093.55 566.25 1202.65 566.25 1311.75 566.25 1388.85 487.6 1466.1 408.9 1466.1 297.75 Z"/>

<path fill="url(#Gradient_3)" stroke="none" d="
M 3356.9 1260.8
Q 3365.95 1355.35 3326.8 1441.95 3288.05 1527.4 3219.4 1591.7 3151.85 1654.75 3067.45 1692.5 2986.1 1728.9 2897.1 1735 2847.7 1738.5 2798.45 1733.95 2787.8 1735.1 2777.2 1736.2 2703.2 1739.3 2632.15 1718.2 2570.65 1700.1 2512.55 1672.95 2445.4 1641.5 2385 1597.8 2323.65 1553.3 2271.2 1498.6
L 2032.25 1774.4
Q 2078.45 1820 2128.65 1861.55 2199.55 1920.2 2279.25 1966.8 2352.95 2009.85 2433.25 2038.3 2519.75 2068.7 2610.85 2078.15 2702.95 2087.3 2794.65 2077.3 2886.3 2067.45 2971.8 2033.05 3060.95 1997 3133.35 1933.2 3205.8 1869.7 3257.8 1788.8 3306.75 1712.8 3333.75 1626 3362.1 1534.85 3368.3 1440 3374.1 1349.4 3356.9 1260.8 Z"/>

<path fill="url(#Gradient_4)" stroke="none" d="
M 3050.9 1296.2
Q 3064.8 1387.8 3043.8 1477.9 3021.6 1573.1 2957.85 1646.9 2894.35 1720.35 2798.45 1733.95 2847.7 1738.5 2897.1 1735 2986.1 1728.9 3067.45 1692.5 3151.85 1654.75 3219.4 1591.7 3288.05 1527.4 3326.8 1441.95 3365.95 1355.35 3356.9 1260.8 3345.5 1201.65 3321.8 1146.2 3260.55 1002.05 3142.95 897.85 3003.5 926.45 2875.75 989.3 2943.1 1049.55 2989.7 1126.75 3037.1 1205.45 3050.9 1296.2 Z"/>

<path fill="#7E319A" stroke="none" d="
M 2884.15 107.9
Q 2806.9 29.25 2697.8 29.25 2588.7 29.25 2511.5 107.9 2434.35 186.6 2434.35 297.75 2434.35 408.9 2511.5 487.6 2588.7 566.25 2697.8 566.25 2806.9 566.25 2884.15 487.6 2961.25 408.9 2961.25 297.75 2961.25 186.6 2884.15 107.9 Z"/>
</g>

<g id="Layer0_0_FILL">
<path fill="url(#Gradient_5)" stroke="none" d="
M 2776 678.7
Q 2687.6 684.6 2600.35 699.5 2508.15 715.2 2420.65 748.35 2330.75 782.5 2248.15 831.5 2173.9 875.75 2106.1 929.45 2034.05 986.7 1969.45 1052 1911.15 1111 1856.8 1174 1806 1232.75 1755.7 1292.15 1697.6 1360.7 1640.25 1430.15 1582.65 1499.9 1518.95 1563.85 1453.25 1629.65 1380.2 1687.5 1305.65 1746.55 1223.9 1795 1144 1842.55 1058.85 1879.4 972.6 1916.75 881.4 1940.25 792.55 1962.95 701.45 1974.25 612.3 1985.4 522.4 1987.15 426.5 1988.95 330.85 1981.65 352.4 1992.2 374.75 2002.45 449.9 2036.5 528.5 2061.5 593.65 2082.35 660.15 2097.6 720.3 2111.4 781.65 2120.85 846.05 2130.75 911.15 2137.1 984.7 2143.35 1058.5 2141.15 1114.7 2139.25 1170.25 2132.15 1226.05 2124.85 1280.8 2112.7 1358.35 2095.05 1433.2 2067.8 1487.75 2047.8 1540.4 2023.1 1589.5 2000 1635 1970.15 1663.9 1951.3 1691.85 1930.8 1721.65 1908.8 1750.55 1885.5 1776.25 1864.9 1800.85 1843.3 1865.65 1786.4 1926.5 1724.95 2001.15 1649.55 2070.75 1569.6 2117.8 1515.5 2161.9 1458.75 2256.6 1337.15 2368.4 1231.5 2482.95 1123.05 2615.8 1037.8 2755 948.4 2910 891 3004.7 855.85 3103.95 838.2 3182.15 824.2 3261.4 820.3 3364.85 815.2 3467.7 823.6 3384.9 784.3 3298.1 753.95 3215.7 725.15 3130 706.2 3047.65 688.05 2963.85 680.75 2869.9 672.35 2776 678.7 Z"/>
</g>
</defs>

<g transform="matrix( 1, 0, 0, 1, 0,0) ">
<use xlink:href="#Layer3_0_FILL"/>
</g>

<g transform="matrix( 1, 0, 0, 1, 0,0) ">
<use xlink:href="#Layer0_0_FILL"/>
</g>
</svg>
