
<svg xmlns="http://www.w3.org/2000/svg" version="1.1" xmlns:xlink="http://www.w3.org/1999/xlink" preserveAspectRatio="none" x="0px" y="0px" width="3840px" height="2160px" viewBox="0 0 3840 2160">
<defs>
<linearGradient id="Gradient_1" gradientUnits="userSpaceOnUse" x1="1183.5125" y1="1384.6999999999998" x2="1240.9875" y2="962.9999999999999" spreadMethod="pad">
<stop  offset="0%" stop-color="#1B41A1"/>

<stop  offset="100%" stop-color="#1B24A2"/>

<stop  offset="100%" stop-color="#1B41A1"/>

<stop  offset="100%" stop-color="#1B41A1"/>
</linearGradient>

<linearGradient id="Gradient_2" gradientUnits="userSpaceOnUse" x1="1045.925" y1="975.1" x2="1863.7749999999999" y2="975.1" spreadMethod="pad">
<stop  offset="0%" stop-color="#27A5C8"/>

<stop  offset="100%" stop-color="#146DA2"/>
</linearGradient>

<linearGradient id="Gradient_3" gradientUnits="userSpaceOnUse" x1="1948.175" y1="1301.95" x2="2729.325" y2="1301.95" spreadMethod="pad">
<stop  offset="0%" stop-color="#1776A8"/>

<stop  offset="100%" stop-color="#26A4C7"/>

<stop  offset="100%" stop-color="#1B41A1"/>

<stop  offset="100%" stop-color="#1B41A1"/>
</linearGradient>

<linearGradient id="Gradient_4" gradientUnits="userSpaceOnUse" x1="2632.1375" y1="858.3125" x2="2449.3625" y2="1359.6875" spreadMethod="pad">
<stop  offset="0%" stop-color="#1B41A1"/>

<stop  offset="100%" stop-color="#1B24A2"/>

<stop  offset="100%" stop-color="#1B41A1"/>

<stop  offset="100%" stop-color="#1B41A1"/>
</linearGradient>

<linearGradient id="Gradient_5" gradientUnits="userSpaceOnUse" x1="956.6375" y1="1148.65" x2="2786.6625000000004" y2="1148.65" spreadMethod="pad">
<stop  offset="0%" stop-color="#1B41A1"/>

<stop  offset="100%" stop-color="#86309A"/>

<stop  offset="100%" stop-color="#1B41A1"/>

<stop  offset="100%" stop-color="#1B41A1"/>
</linearGradient>

<g id="Layer3_0_FILL">
<path fill="url(#Gradient_1)" stroke="none" d="
M 1327.75 937
Q 1334.45 933.5 1341.2 930.75 1326.35 931.1 1311.55 932.35 1255.4 937 1205.25 962.3 1155 987.75 1116.45 1028.75 1078.7 1068.85 1061.85 1121.45 1045.4 1172.9 1053.65 1226.35 1054.1 1229.15 1054.65 1231.9 1064.85 1287.2 1090.3 1337.5 1114.65 1385.65 1150.05 1426.35 1201.5 1422 1251.45 1409.3 1300.8 1396.9 1347.2 1376.45 1307.75 1347.5 1278.95 1307.8 1255.25 1275.05 1239.8 1237.75 1224.35 1200.35 1221.15 1159.95 1218.05 1121.3 1226.15 1083.4 1236.4 1035.35 1263.55 994.45 1288.3 957.2 1327.75 937 Z"/>

<path fill="url(#Gradient_2)" stroke="none" d="
M 1570.2 729
Q 1517.3 717.6 1463.1 718.3 1406.9 719.05 1352.45 732.55 1301.6 745.2 1255.85 771 1210.35 796.75 1173.2 833.75 1135.95 870.75 1108.35 915.3 1078.9 962.75 1063.5 1016.2 1049.05 1066.25 1046.5 1118.25 1043.8 1172.7 1053.65 1226.35 1045.4 1172.9 1061.85 1121.45 1078.7 1068.85 1116.45 1028.75 1155 987.75 1205.25 962.3 1255.4 937 1311.55 932.35 1326.35 931.1 1341.2 930.75 1344.5 929.6 1347.8 928.45 1384.65 916.85 1423.1 918.7 1465.9 920.3 1507.15 931.7 1551.15 943.9 1591.25 965.45 1629.9 986.35 1664.25 1013.9 1694.7 1038.25 1721.85 1066.2
L 1863.9 886.5
Q 1853.9 878.15 1843.8 869.95 1804 837.25 1760.55 809.6 1715 780.75 1665.35 759.5 1619.35 739.75 1570.2 729 Z"/>

<path fill="#1D89B5" stroke="none" d="
M 1573.95 389.8
Q 1528.95 343.9 1465.3 343.9 1401.65 343.9 1356.6 389.8 1311.55 435.7 1311.55 500.55 1311.55 565.4 1356.6 611.3 1401.65 657.2 1465.3 657.2 1528.95 657.2 1573.95 611.3 1619 565.4 1619 500.55 1619 435.7 1573.95 389.8 Z"/>

<path fill="#7E319A" stroke="none" d="
M 2446.3 389.8
Q 2401.25 343.9 2337.6 343.9 2273.95 343.9 2228.9 389.8 2183.9 435.7 2183.9 500.55 2183.9 565.4 2228.9 611.3 2273.95 657.2 2337.6 657.2 2401.25 657.2 2446.3 611.3 2491.3 565.4 2491.3 500.55 2491.3 435.7 2446.3 389.8 Z"/>

<path fill="url(#Gradient_3)" stroke="none" d="
M 2728.75 1166.95
Q 2732.15 1114.1 2722.1 1062.4 2727.4 1117.55 2704.55 1168.1 2681.95 1217.95 2641.9 1255.45 2602.5 1292.25 2553.25 1314.25 2505.8 1335.5 2453.85 1339.05 2425.05 1341.1 2396.3 1338.45 2390.1 1339.1 2383.9 1339.75 2340.75 1341.55 2299.3 1329.25 2263.4 1318.7 2229.5 1302.85 2190.35 1284.5 2155.1 1259 2119.3 1233.05 2088.7 1201.15
L 1949.3 1362.05
Q 1976.25 1388.65 2005.55 1412.9 2046.9 1447.1 2093.4 1474.3 2136.4 1499.4 2183.25 1516 2233.7 1533.75 2286.85 1539.25 2340.6 1544.6 2394.1 1538.75 2447.55 1533 2497.45 1512.95 2549.45 1491.9 2591.7 1454.7 2633.95 1417.65 2664.3 1370.45 2692.85 1326.1 2708.6 1275.45 2725.15 1222.3 2728.75 1166.95 Z"/>

<path fill="url(#Gradient_4)" stroke="none" d="
M 2722.1 1062.4
Q 2715.45 1027.9 2701.65 995.55 2665.9 911.45 2597.3 850.65 2515.95 867.35 2441.4 904 2480.7 939.15 2507.9 984.2 2535.55 1030.1 2543.6 1083.05 2551.7 1136.5 2539.45 1189.05 2526.5 1244.6 2489.3 1287.65 2452.25 1330.5 2396.3 1338.45 2425.05 1341.1 2453.85 1339.05 2505.8 1335.5 2553.25 1314.25 2602.5 1292.25 2641.9 1255.45 2681.95 1217.95 2704.55 1168.1 2727.4 1117.55 2722.1 1062.4 Z"/>
</g>

<g id="Layer0_0_FILL">
<path fill="url(#Gradient_5)" stroke="none" d="
M 2666.4 805.4
Q 2726.75 802.45 2786.75 807.35 2738.45 784.4 2687.8 766.7 2639.75 749.9 2589.75 738.85 2541.7 728.25 2492.8 724 2438 719.1 2383.2 722.8 2331.65 726.25 2280.75 734.95 2226.95 744.1 2175.9 763.45 2123.45 783.35 2075.25 811.95 2031.95 837.75 1992.4 869.1 1950.35 902.5 1912.65 940.6 1878.65 975 1846.95 1011.75 1817.3 1046.05 1787.95 1080.7 1754.05 1120.7 1720.6 1161.2 1687 1201.9 1649.85 1239.2 1611.5 1277.6 1568.9 1311.35 1525.4 1345.8 1477.7 1374.05 1431.1 1401.8 1381.4 1423.3 1331.1 1445.1 1277.9 1458.8 1226.05 1472.05 1172.9 1478.65 1120.9 1485.15 1068.45 1486.15 1012.5 1487.2 956.7 1482.95 969.25 1489.1 982.3 1495.1 1026.15 1514.95 1072 1529.55 1110 1541.7 1148.8 1550.6 1183.9 1558.65 1219.7 1564.15 1257.25 1569.95 1295.25 1573.65 1338.15 1577.3 1381.2 1576 1414 1574.9 1446.4 1570.75 1478.95 1566.5 1510.9 1559.4 1556.15 1549.1 1599.8 1533.2 1631.65 1521.55 1662.35 1507.15 1691 1493.65 1717.55 1476.25 1734.4 1465.25 1750.7 1453.3 1768.1 1440.45 1784.95 1426.85 1799.95 1414.85 1814.3 1402.25 1852.1 1369.05 1887.6 1333.2 1931.15 1289.2 1971.75 1242.55 1999.2 1211 2024.95 1177.9 2080.2 1106.95 2145.4 1045.3 2212.25 982.05 2289.75 932.3 2370.95 880.15 2461.4 846.65 2516.65 826.15 2574.55 815.85 2620.15 807.7 2666.4 805.4 Z"/>
</g>
</defs>

<g transform="matrix( 1, 0, 0, 1, 0,0) ">
<use xlink:href="#Layer3_0_FILL"/>
</g>

<g transform="matrix( 1, 0, 0, 1, 0,0) ">
<use xlink:href="#Layer0_0_FILL"/>
</g>
</svg>
